<mxfile host="65bd71144e">
    <diagram name="Page-1" id="0">
        <mxGraphModel dx="1254" dy="1996" grid="1" gridSize="10" guides="1" tooltips="1" connect="1" arrows="1" fold="1" page="1" pageScale="1" pageWidth="827" pageHeight="1169" math="0" shadow="0">
            <root>
                <mxCell id="0"/>
                <mxCell id="1" parent="0"/>
                <mxCell id="2" value="Клиент&#xa;- Имя&#xa;- Адрес&#xa;- Телефон" style="shape=rectangle;whiteSpace=wrap;html=1;rounded=1;fillColor=#ffffff;strokeColor=#000000;verticalLabelPosition=middle;align=center;verticalAlign=middle;" parent="1" vertex="1">
                    <mxGeometry x="60" y="60" width="120" height="90" as="geometry"/>
                </mxCell>
                <mxCell id="3" value="Заказ&#xa;- Дата&#xa;- Список продуктов&#xa;- Статус" style="shape=rectangle;whiteSpace=wrap;html=1;rounded=1;fillColor=#ffffff;strokeColor=#000000;verticalLabelPosition=middle;align=center;verticalAlign=middle;" parent="1" vertex="1">
                    <mxGeometry x="240" y="60" width="120" height="90" as="geometry"/>
                </mxCell>
                <mxCell id="4" value="Ресторан&#xa;- Название&#xa;- Адрес&#xa;- Меню" style="shape=rectangle;whiteSpace=wrap;html=1;rounded=1;fillColor=#ffffff;strokeColor=#000000;verticalLabelPosition=middle;align=center;verticalAlign=middle;" parent="1" vertex="1">
                    <mxGeometry x="190" y="-60" width="120" height="90" as="geometry"/>
                </mxCell>
                <mxCell id="5" value="Доставщик&#xa;- Имя&#xa;- Телефон&#xa;- Местоположение" style="shape=rectangle;whiteSpace=wrap;html=1;rounded=1;fillColor=#ffffff;strokeColor=#000000;verticalLabelPosition=middle;align=center;verticalAlign=middle;" parent="1" vertex="1">
                    <mxGeometry x="330" y="260" width="120" height="90" as="geometry"/>
                </mxCell>
                <mxCell id="6" value="Платеж&#xa;- Сумма&#xa;- Способ оплаты&#xa;- Статус" style="shape=rectangle;whiteSpace=wrap;html=1;rounded=1;fillColor=#ffffff;strokeColor=#000000;verticalLabelPosition=middle;align=center;verticalAlign=middle;" parent="1" vertex="1">
                    <mxGeometry x="150" y="260" width="120" height="90" as="geometry"/>
                </mxCell>
                <mxCell id="7" value="Уведомление&#xa;- Тип&#xa;- Сообщение&#xa;- Время" style="shape=rectangle;whiteSpace=wrap;html=1;rounded=1;fillColor=#ffffff;strokeColor=#000000;verticalLabelPosition=middle;align=center;verticalAlign=middle;" parent="1" vertex="1">
                    <mxGeometry x="460" y="-30" width="120" height="90" as="geometry"/>
                </mxCell>
                <mxCell id="8" style="edgeStyle=orthogonalEdgeStyle;rounded=0;orthogonalLoop=1;jettySize=auto;html=1;exitX=0.5;exitY=0;exitDx=0;exitDy=0" parent="1" source="2" target="3" edge="1">
                    <mxGeometry relative="1" as="geometry"/>
                </mxCell>
                <mxCell id="9" style="edgeStyle=orthogonalEdgeStyle;rounded=0;orthogonalLoop=1;jettySize=auto;html=1;exitX=0.5;exitY=0;exitDx=0;exitDy=0" parent="1" source="3" target="4" edge="1">
                    <mxGeometry relative="1" as="geometry"/>
                </mxCell>
                <mxCell id="10" style="edgeStyle=orthogonalEdgeStyle;rounded=0;orthogonalLoop=1;jettySize=auto;html=1;exitX=0.5;exitY=0;exitDx=0;exitDy=0" parent="1" source="3" target="5" edge="1">
                    <mxGeometry relative="1" as="geometry"/>
                </mxCell>
                <mxCell id="11" style="edgeStyle=orthogonalEdgeStyle;rounded=0;orthogonalLoop=1;jettySize=auto;html=1;exitX=0.5;exitY=0;exitDx=0;exitDy=0" parent="1" source="6" target="3" edge="1">
                    <mxGeometry relative="1" as="geometry"/>
                </mxCell>
                <mxCell id="12" style="edgeStyle=orthogonalEdgeStyle;rounded=0;orthogonalLoop=1;jettySize=auto;html=1;exitX=0.5;exitY=0;exitDx=0;exitDy=0" parent="1" source="4" target="7" edge="1">
                    <mxGeometry relative="1" as="geometry"/>
                </mxCell>
            </root>
        </mxGraphModel>
    </diagram>
</mxfile>